<?xml version="1.0" standalone="no"?>
<!DOCTYPE svg PUBLIC "-//W3C//DTD SVG 20010904//EN"
 "http://www.w3.org/TR/2001/REC-SVG-20010904/DTD/svg10.dtd">
<svg version="1.0" xmlns="http://www.w3.org/2000/svg"
 width="260.000000pt" height="260.000000pt" viewBox="0 0 260.000000 260.000000"
 preserveAspectRatio="xMidYMid meet">
<metadata>
Created by potrace 1.11, written by Peter Selinger 2001-2013
</metadata>
<g transform="translate(0.000000,260.000000) scale(0.100000,-0.100000)"
fill="#000000" stroke="none">
<path d="M1166 2553 c-22 -2 -46 -12 -54 -21 -13 -16 -13 -16 -8 1 3 9 1 17
-4 17 -18 0 -62 -20 -77 -36 -9 -8 -25 -13 -35 -10 -23 5 -50 -3 -43 -14 2 -4
-2 -16 -11 -26 -14 -18 -15 -18 -4 4 10 20 8 22 -17 22 -15 0 -48 -9 -72 -20
-24 -11 -49 -20 -56 -20 -6 0 -20 -9 -30 -20 -10 -11 -28 -20 -40 -20 -28 0
-173 -100 -189 -131 -7 -13 -20 -23 -29 -23 -11 1 -17 -6 -17 -17 0 -14 -9
-21 -30 -25 -16 -4 -30 -10 -30 -15 0 -5 -24 -33 -53 -63 -71 -73 -89 -97
-152 -201 -39 -64 -51 -91 -42 -97 8 -5 7 -8 -4 -8 -29 0 -97 -215 -120 -379
-21 -147 7 -460 42 -482 7 -4 19 -4 28 -1 14 5 14 4 1 -10 -8 -9 -19 -13 -24
-10 -5 3 -6 -3 -3 -12 4 -10 10 -29 13 -42 4 -15 13 -24 25 -24 12 0 16 -5 13
-15 -4 -9 0 -15 7 -16 9 0 7 -3 -3 -7 -16 -6 -13 -18 31 -107 27 -55 68 -120
90 -144 23 -24 41 -50 41 -57 0 -18 158 -174 220 -217 161 -111 173 -118 202
-112 18 4 28 3 28 -5 0 -7 -7 -10 -15 -6 -8 3 -15 3 -15 0 0 -11 129 -64 215
-89 202 -58 402 -70 573 -35 113 23 230 61 276 90 19 11 42 20 53 20 12 0 26
6 32 14 7 8 24 17 38 21 15 3 50 22 78 41 69 46 225 184 225 200 0 7 6 17 13
21 33 20 137 160 179 240 53 100 111 259 128 348 28 148 20 488 -11 469 -5 -3
-4 6 3 20 8 20 8 35 -1 66 -7 22 -16 38 -21 35 -6 -3 -7 1 -4 9 3 8 -3 35 -14
59 -11 25 -23 58 -27 75 -3 16 -15 38 -26 48 -10 9 -19 25 -19 36 0 10 -5 18
-11 18 -5 0 -7 5 -4 10 3 6 -1 13 -10 16 -8 4 -15 11 -14 18 3 25 -2 36 -16
36 -8 0 -15 7 -15 15 0 19 -57 94 -120 160 -97 100 -156 155 -167 155 -6 0
-13 4 -15 8 -6 16 -108 80 -145 93 -21 6 -41 18 -46 25 -4 7 -31 20 -60 29
-28 10 -70 26 -93 36 -96 43 -403 78 -538 62z m304 -79 c34 -6 34 -6 12 -18
-20 -11 -13 -12 50 -13 85 0 223 -25 211 -37 -4 -5 0 -6 10 -3 10 4 16 3 13
-2 -3 -4 27 -23 67 -41 134 -61 217 -125 365 -283 70 -75 80 -97 44 -97 -9 -1
3 -11 28 -23 41 -20 50 -31 97 -127 29 -58 60 -127 69 -155 21 -62 20 -61 41
-44 15 13 15 12 0 -12 -23 -34 -13 -124 12 -114 8 3 12 3 8 -1 -4 -4 -2 -13 4
-21 14 -16 5 -17 -22 -3 -24 13 -24 5 -4 -70 38 -142 -5 -440 -88 -604 -11
-22 -34 -63 -52 -90 -18 -28 -44 -71 -59 -96 -40 -69 -48 -79 -92 -124 -60
-61 -161 -156 -166 -156 -2 0 -53 -29 -114 -65 -149 -89 -333 -147 -516 -164
-124 -10 -167 -6 -182 18 -4 5 -29 7 -59 4 -61 -6 -211 30 -318 78 -37 16 -77
29 -88 29 -12 0 -20 5 -19 12 2 7 -24 27 -57 44 -33 18 -71 43 -85 56 -14 14
-49 44 -78 68 -45 37 -50 45 -36 53 15 8 13 11 -12 24 -62 30 -93 50 -87 56 5
6 -24 48 -70 97 -22 25 -59 104 -113 248 -15 39 -31 72 -36 72 -4 0 -5 6 -2
14 3 8 1 31 -5 52 -25 95 -45 351 -27 357 16 5 33 77 29 121 -4 29 2 68 16
114 11 39 21 75 21 82 0 7 9 23 20 37 11 14 20 32 20 40 0 26 74 143 91 143 9
0 29 6 43 14 l27 14 -26 6 c-29 7 -32 18 -10 36 8 7 15 16 15 21 0 15 132 149
197 200 116 91 334 212 387 215 17 1 45 7 61 14 32 13 48 15 195 28 95 7 204
6 270 -4z m-1360 -1034 c8 -5 11 -10 5 -10 -5 0 -17 5 -25 10 -8 5 -10 10 -5
10 6 0 17 -5 25 -10z"/>
<path d="M1147 2072 c17 -55 12 -145 -12 -211 -8 -25 -43 -82 -76 -128 -85
-117 -103 -162 -96 -237 4 -34 24 -113 46 -176 23 -63 41 -131 41 -151 0 -47
-30 -85 -79 -100 -56 -17 -76 -1 -123 96 -49 103 -89 143 -159 161 -29 8 -54
12 -56 10 -2 -2 6 -23 19 -47 34 -66 35 -148 3 -309 -31 -159 -29 -233 8 -245
19 -6 19 -8 5 -12 -16 -4 -16 -7 3 -45 31 -60 115 -140 181 -171 83 -39 94
-36 57 16 -36 51 -49 141 -29 201 12 36 30 49 30 21 0 -8 14 -30 31 -50 26
-30 37 -35 74 -35 25 0 47 6 55 15 21 25 13 79 -20 144 -37 74 -33 94 29 158
l36 37 6 -48 c6 -57 34 -86 83 -86 41 0 71 31 123 125 35 65 38 76 38 152 0
91 6 99 47 56 33 -36 61 -91 87 -176 l21 -68 -30 -93 c-32 -99 -38 -157 -17
-174 21 -17 75 -24 96 -12 19 10 21 19 19 98 -1 48 3 96 9 106 9 17 13 14 31
-27 11 -25 34 -66 50 -89 79 -115 90 -180 46 -256 l-26 -44 23 7 c98 29 172
96 222 203 31 64 32 72 32 192 -1 118 -3 131 -38 232 -40 116 -45 160 -23 213
18 42 10 44 -54 19 -57 -23 -89 -81 -97 -174 -6 -75 -20 -100 -54 -100 -55 0
-98 48 -99 107 0 51 12 80 65 157 35 52 40 65 39 115 -1 89 -66 203 -140 247
-65 38 -77 33 -47 -22 51 -91 40 -218 -22 -246 -53 -24 -145 31 -145 86 0 11
9 63 20 115 28 133 26 193 -9 266 -45 95 -133 183 -212 214 l-27 10 15 -47z
m48 -302 c3 -5 -1 -10 -9 -10 -9 0 -16 5 -16 10 0 6 4 10 9 10 6 0 13 -4 16
-10z m-28 -92 c-3 -8 -6 -5 -6 6 -1 11 2 17 5 13 3 -3 4 -12 1 -19z m115 -20
c-9 -9 -12 -7 -12 12 0 19 3 21 12 12 9 -9 9 -15 0 -24z m-152 -64 c0 -2 -9 0
-20 6 -11 6 -20 13 -20 16 0 2 9 0 20 -6 11 -6 20 -13 20 -16z m160 -99 c-7
-9 -15 -13 -18 -10 -3 2 1 11 8 20 7 9 15 13 18 10 3 -2 -1 -11 -8 -20z m-180
-15 c0 -5 -11 -10 -25 -10 -14 0 -25 -5 -25 -12 0 -6 -3 -8 -7 -4 -9 9 25 36
44 36 7 0 13 -4 13 -10z m107 -15 c8 -8 19 -13 24 -10 5 4 9 -1 9 -10 0 -14
-4 -13 -30 5 -16 12 -30 23 -30 26 0 8 12 4 27 -11z m-131 -72 c39 -7 39 -7 9
-13 -23 -4 -31 -12 -36 -35 l-7 -30 -1 34 c-1 20 -10 45 -23 60 -21 24 -21 24
-2 8 12 -10 39 -21 60 -24z m554 -17 c0 -3 -4 -8 -10 -11 -5 -3 -10 -1 -10 4
0 6 5 11 10 11 6 0 10 -2 10 -4z m-66 -65 c-10 -10 -21 -17 -23 -15 -6 6 20
34 32 34 6 0 2 -8 -9 -19z m-486 -46 c-3 -3 -9 2 -12 12 -6 14 -5 15 5 6 7 -7
10 -15 7 -18z m-358 -40 c0 -8 -4 -15 -10 -15 -5 0 -10 7 -10 15 0 8 5 15 10
15 6 0 10 -7 10 -15z m62 -157 c-8 -8 -9 -4 -5 13 4 13 8 18 11 10 2 -7 -1
-18 -6 -23z m1068 2 c0 -11 -4 -20 -8 -20 -4 0 -8 9 -9 20 -1 11 2 20 8 20 5
0 9 -9 9 -20z m50 -50 c10 -6 12 -12 5 -19 -7 -7 -14 -4 -23 9 -13 21 -6 25
18 10z m-67 -14 c22 -17 22 -26 -2 -26 -10 0 -21 9 -24 20 -6 23 1 25 26 6z
m67 -36 c0 -5 -5 -10 -11 -10 -5 0 -7 5 -4 10 3 6 8 10 11 10 2 0 4 -4 4 -10z
m-1170 -74 c0 -3 -4 -8 -10 -11 -5 -3 -10 -1 -10 4 0 6 5 11 10 11 6 0 10 -2
10 -4z m-21 -74 c7 -24 10 -46 7 -49 -7 -7 -21 29 -31 77 -10 48 8 27 24 -28z
m1111 12 c0 -8 -4 -12 -10 -9 -5 3 -10 1 -10 -6 0 -7 -3 -9 -6 -6 -4 4 -1 13
6 22 16 19 20 19 20 -1z m60 -14 c0 -5 -5 -10 -11 -10 -5 0 -7 5 -4 10 3 6 8
10 11 10 2 0 4 -4 4 -10z m-395 -70 c-3 -5 -11 -10 -16 -10 -6 0 -7 5 -4 10 3
6 11 10 16 10 6 0 7 -4 4 -10z m-455 -10 c0 -5 -4 -10 -10 -10 -5 0 -10 5 -10
10 0 6 5 10 10 10 6 0 10 -4 10 -10z m-40 -20 c0 -5 -2 -10 -4 -10 -3 0 -8 5
-11 10 -3 6 -1 10 4 10 6 0 11 -4 11 -10z m850 0 c0 -5 -4 -10 -10 -10 -5 0
-10 5 -10 10 0 6 5 10 10 10 6 0 10 -4 10 -10z m-1100 -64 c0 -2 -7 -7 -16
-10 -8 -3 -12 -2 -9 4 6 10 25 14 25 6z"/>
</g>
</svg>
